<?xml version="1.0" standalone="no"?>
<!DOCTYPE svg PUBLIC "-//W3C//DTD SVG 20010904//EN"
 "http://www.w3.org/TR/2001/REC-SVG-20010904/DTD/svg10.dtd">
<svg version="1.0" xmlns="http://www.w3.org/2000/svg"
 width="180.000000pt" height="180.000000pt" viewBox="0 0 180.000000 180.000000"
 preserveAspectRatio="xMidYMid meet">
<metadata>
Created by potrace 1.11, written by Peter Selinger 2001-2013
</metadata>
<g transform="translate(0.000000,180.000000) scale(0.100000,-0.100000)"
fill="#000000" stroke="none">
<path d="M758 1795 c-2 -2 -21 -6 -43 -9 -344 -43 -639 -245 -702 -481 -13
-49 -11 -170 4 -209 50 -135 123 -222 287 -339 102 -73 141 -111 173 -165 28
-47 25 -73 -7 -67 -17 3 -20 -1 -20 -35 0 -35 3 -39 28 -42 22 -2 27 -8 26
-30 -2 -45 -3 -45 -29 -43 -23 3 -25 0 -25 -35 0 -35 3 -39 28 -42 24 -3 27
-7 27 -38 1 -74 33 -104 115 -109 57 -4 58 -4 55 -43 -8 -92 33 -111 241 -106
151 3 153 3 182 31 24 23 28 34 26 72 l-2 45 43 0 c68 0 113 26 122 69 4 20 7
46 6 58 0 19 5 23 28 23 26 0 29 3 29 35 0 19 -4 36 -10 36 -5 1 -14 3 -20 4
-5 1 -14 3 -18 4 -5 0 -9 17 -10 36 -1 33 1 35 29 35 29 0 30 2 27 37 -2 30
-7 38 -23 38 -33 -1 -35 17 -7 69 25 45 100 112 228 201 53 37 132 116 168
168 93 135 107 272 43 409 -19 40 -43 83 -53 94 -10 12 -30 35 -44 51 -89 107
-300 215 -505 259 -70 15 -386 30 -397 19z m272 -79 c106 -11 289 -62 314 -87
6 -5 16 -9 23 -9 8 0 19 -5 26 -10 7 -6 35 -25 62 -42 58 -37 135 -113 169
-166 53 -85 74 -201 50 -275 -7 -20 -14 -41 -14 -45 -1 -4 -14 -30 -30 -57
-42 -74 -122 -152 -230 -226 -99 -67 -167 -140 -199 -211 l-29 -63 -99 1 c-54
1 -103 2 -108 3 -10 1 -15 276 -5 284 51 40 191 122 210 123 14 1 35 2 47 3
18 1 22 6 20 36 -2 38 0 37 -94 37 -33 0 -57 -10 -107 -43 -35 -23 -68 -41
-73 -40 -4 0 -8 16 -8 34 -1 30 7 37 125 116 l125 84 72 0 72 0 -1 38 0 38
-97 -1 c-96 -1 -96 -1 -156 -42 -33 -23 -63 -45 -67 -51 -4 -5 -8 -6 -8 -1 0
5 -8 2 -17 -7 -32 -28 -47 -25 -48 11 -1 26 5 38 24 50 14 9 28 19 31 22 4 4
137 92 213 141 5 4 11 26 13 48 3 46 -3 52 -58 53 -53 0 -55 -1 -54 -29 1 -23
-10 -36 -74 -80 -41 -29 -79 -51 -85 -49 -6 1 -10 43 -10 97 l0 94 -57 3 -56
3 0 -108 c0 -140 1 -133 -19 -126 -10 4 -20 9 -23 13 -3 4 -33 25 -66 48 -37
25 -61 48 -61 59 0 37 -4 40 -50 39 -58 -2 -76 -11 -65 -34 4 -9 7 -26 7 -37
0 -15 35 -44 137 -113 76 -51 139 -97 139 -102 1 -6 2 -17 2 -25 0 -44 -2 -46
-25 -33 -13 7 -25 15 -28 18 -3 3 -25 18 -50 34 -40 26 -54 30 -125 30 -94 1
-112 -5 -111 -36 2 -39 12 -44 80 -42 65 2 67 2 155 -56 49 -32 92 -64 97 -72
11 -17 12 -68 2 -68 -5 0 -5 -8 -1 -17 9 -18 10 -200 1 -208 -2 -2 -27 11 -55
30 -49 33 -52 37 -55 82 l-3 48 -48 0 c-27 1 -51 -3 -54 -8 -6 -10 -8 -116 -2
-121 2 -2 52 -35 112 -75 59 -39 107 -77 107 -84 0 -9 -16 -13 -55 -12 l-55 1
0 -38 0 -38 224 0 224 0 0 -35 c0 -19 -5 -36 -11 -36 -7 -1 -102 -3 -212 -4
-110 -1 -206 -3 -212 -4 -8 0 -13 -15 -13 -36 l0 -35 68 -1 c37 0 138 0 225 0
l157 -1 0 -34 c0 -20 -5 -35 -12 -35 -7 -1 -132 -2 -277 -3 -171 -1 -265 2
-267 9 -1 5 -4 82 -6 170 -3 143 -6 165 -27 204 -28 54 -96 121 -187 186 -91
65 -89 63 -144 117 -66 65 -127 158 -136 211 -1 4 -2 8 -3 10 -9 11 -9 81 -1
127 32 173 196 332 420 405 30 10 62 20 70 23 8 3 22 6 30 8 69 13 91 17 134
20 27 2 50 5 52 7 5 5 135 0 204 -7z m-20 -1601 c0 -21 -5 -36 -12 -36 -50 -6
-186 -4 -199 2 -9 5 -15 18 -13 31 1 13 3 26 3 31 1 4 51 7 111 7 l110 0 0
-35z"/>
<path d="M847 1643 c-2 -5 -5 -22 -5 -38 -1 -30 0 -31 51 -29 29 1 55 2 59 3
4 1 6 17 5 36 l-2 35 -52 0 c-28 0 -54 -3 -56 -7z"/>
<path d="M1153 1612 c-30 -3 -32 -6 -29 -35 2 -18 4 -34 5 -37 1 -4 75 -5 102
-1 5 1 5 15 0 66 -1 10 -23 12 -78 7z"/>
<path d="M569 1575 c-1 0 -3 -17 -4 -38 l-2 -38 56 3 c55 3 56 3 55 33 -1 17
-2 33 -3 36 -1 4 -84 7 -102 4z"/>
<path d="M1464 1225 c-3 -7 -4 -24 -2 -37 3 -20 9 -23 56 -25 53 -2 55 0 55
42 0 8 -1 19 -2 23 -2 15 -102 12 -107 -3z"/>
<path d="M290 1160 c-4 -3 -7 -20 -6 -39 1 -33 2 -34 49 -35 27 -1 51 3 54 7
10 17 10 58 -1 64 -12 8 -85 10 -96 3z"/>
<path d="M1354 1011 c-7 -7 -4 -71 4 -72 26 -3 100 -3 97 -1 -2 2 1 17 5 33 7
22 5 31 -4 35 -17 7 -96 11 -102 5z"/>
<path d="M618 949 c-7 -43 0 -49 58 -49 l54 0 0 35 c0 19 -3 36 -7 36 -5 1
-29 2 -55 3 -43 2 -47 0 -50 -25z"/>
</g>
</svg>
